<svg width="40" height="40" viewBox="0 0 40 40" fill="none" xmlns="http://www.w3.org/2000/svg">
<path d="M23.0083 3.28711C26.0158 3.28568 28.9328 4.31536 31.273 6.20444C33.6131 8.09351 35.2349 10.7278 35.8678 13.6679C36.5007 16.608 36.1064 19.6763 34.7508 22.3609C33.3952 25.0455 31.1602 27.1842 28.4186 28.4204C27.5422 30.3578 26.209 32.0539 24.5332 33.3629C22.8575 34.672 20.8892 35.5551 18.7972 35.9364C16.7052 36.3178 14.5519 36.186 12.5221 35.5524C10.4922 34.9188 8.64628 33.8024 7.14265 32.2987C5.63902 30.7951 4.52253 28.9492 3.88896 26.9193C3.25538 24.8894 3.12361 22.7362 3.50495 20.6442C3.8863 18.5522 4.76938 16.5839 6.07845 14.9082C7.38752 13.2324 9.08353 11.8992 11.021 11.0228C12.0632 8.71688 13.7485 6.76054 15.8747 5.38844C18.0009 4.01633 20.4778 3.28672 23.0083 3.28711ZM18.078 14.7913H14.7911V16.4347C13.723 16.4321 12.6959 16.8455 11.9275 17.5873C11.1591 18.3291 10.7097 19.341 10.6747 20.4085C10.6396 21.476 11.0216 22.5151 11.7398 23.3058C12.4579 24.0964 13.4556 24.5763 14.5216 24.6437L14.7911 24.6519H18.078L18.2259 24.6651C18.4153 24.6994 18.5867 24.7991 18.7102 24.9469C18.8336 25.0947 18.9012 25.2811 18.9012 25.4737C18.9012 25.6662 18.8336 25.8526 18.7102 26.0004C18.5867 26.1482 18.4153 26.2479 18.2259 26.2822L18.078 26.2954H11.5042V29.5823H14.7911V31.2257H18.078V29.5823C19.146 29.5849 20.1731 29.1715 20.9415 28.4297C21.71 27.6879 22.1593 26.676 22.1944 25.6085C22.2294 24.541 21.8474 23.5018 21.1293 22.7112C20.4112 21.9206 19.4134 21.4407 18.3475 21.3733L18.078 21.365H14.7911L14.6432 21.3519C14.4537 21.3176 14.2823 21.2178 14.1589 21.0701C14.0355 20.9223 13.9678 20.7359 13.9678 20.5433C13.9678 20.3508 14.0355 20.1644 14.1589 20.0166C14.2823 19.8688 14.4537 19.7691 14.6432 19.7347L14.7911 19.7216H21.3649V16.4347H18.078V14.7913ZM23.0083 6.57401C21.6158 6.57238 20.2388 6.86644 18.9684 7.43675C17.6981 8.00706 16.5633 8.84062 15.6391 9.88227C17.4966 9.76951 19.3569 10.0524 21.097 10.7121C22.8371 11.3719 24.4173 12.3935 25.7331 13.7095C27.0489 15.0255 28.0703 16.6058 28.7299 18.3459C29.3895 20.0861 29.6721 21.9464 29.5591 23.8039C31.0534 22.4754 32.1084 20.724 32.5844 18.7821C33.0604 16.8401 32.9347 14.7993 32.2242 12.9304C31.5136 11.0615 30.2517 9.45274 28.6058 8.31751C26.9599 7.18229 25.0078 6.57424 23.0083 6.57401Z" fill="url(#paint0_linear_9_366)"/>
<defs>
<linearGradient id="paint0_linear_9_366" x1="36.1559" y1="3.69797" x2="19.727" y2="36.1496" gradientUnits="userSpaceOnUse">
<stop stop-color="#BA2B7E"/>
<stop offset="1" stop-color="#FF9C12"/>
</linearGradient>
</defs>
</svg>
